<?xml version="1.0" encoding="UTF-8" standalone="no"?>
<!-- This is a slightly modified version of a sample that shipped with
     JASC's WebDraw (www.jasc.com) -->
<svg
   xmlns:dc="http://purl.org/dc/elements/1.1/"
   xmlns:cc="http://web.resource.org/cc/"
   xmlns:rdf="http://www.w3.org/1999/02/22-rdf-syntax-ns#"
   xmlns:svg="http://www.w3.org/2000/svg"
   xmlns="http://www.w3.org/2000/svg"
   xmlns:sodipodi="http://inkscape.sourceforge.net/DTD/sodipodi-0.dtd"
   xmlns:inkscape="http://www.inkscape.org/namespaces/inkscape"
   id="svg2"
   sodipodi:version="0.32"
   inkscape:version="0.42"
   width="210mm"
   height="297mm"
   sodipodi:docname="butterfly.svg"
   sodipodi:docbase="/home/knill/web1/Harvard/computing/svg">
  <metadata
     id="metadata13">
    <rdf:RDF>
      <cc:Work
         rdf:about="">
        <dc:format>image/svg+xml</dc:format>
        <dc:type
           rdf:resource="http://purl.org/dc/dcmitype/StillImage" />
      </cc:Work>
    </rdf:RDF>
  </metadata>
  <defs
     id="defs11" />
  <sodipodi:namedview
     inkscape:cy="467.29273"
     inkscape:cx="305.25953"
     inkscape:zoom="0.43415836"
     inkscape:window-height="785"
     inkscape:window-width="983"
     inkscape:pageshadow="2"
     inkscape:pageopacity="0.0"
     borderopacity="1.0"
     bordercolor="#666666"
     pagecolor="#ffffff"
     id="base"
     inkscape:window-x="393"
     inkscape:window-y="393"
     inkscape:current-layer="svg2" />
  <path
     style="fill:#f67f00;stroke:none;stroke-width:1.0000000"
     d="M 362.08873,345.70536 C 347.65923,326.63886 366.32740,325.14287 366.14703,324.43887 C 340.44448,220.30643 298.99576,174.34148 295.80322,171.90684 C 285.95509,164.39757 281.19336,165.10156 282.94294,161.31759 C 284.67447,157.53363 296.05575,169.38419 297.60691,171.17351 C 343.15001,223.97306 367.95072,323.70554 367.95072,323.70554 C 367.95072,323.70554 371.10717,326.63886 371.55809,324.43887 C 389.59496,237.90628 425.66870,192.44000 437.84359,174.10682 C 450.01848,155.77365 456.42156,153.98433 439.64727,174.84015 C 387.79127,239.37294 372.92889,323.41221 373.81269,323.70554 C 394.55509,331.03882 374.71454,347.17202 375.61638,345.70536 C 381.06352,336.84677 381.02745,363.30521 381.02745,363.30521 C 381.02745,363.30521 411.69013,260.63942 531.63532,130.10720 C 539.03044,122.06993 797.67918,-107.49078 707.49482,172.64016 C 702.82328,187.18938 671.42108,245.97288 671.42108,245.97288 C 671.42108,245.97288 674.12661,270.90599 663.30448,291.43915 C 661.44669,294.95913 656.99158,329.57217 646.16945,348.63867 C 643.12123,354.03596 646.13338,344.00404 646.16945,348.63867 C 647.07130,436.63792 602.75470,434.70194 605.58650,435.17127 C 622.72153,438.10458 625.17454,474.27227 625.42706,474.77093 C 635.34734,493.83743 631.73996,498.23740 635.34734,507.03733 C 654.82716,554.52758 634.28316,551.68228 637.15102,559.83687 C 644.36577,580.37003 635.63592,588.84729 638.05287,595.03657 C 644.36577,611.16977 633.39936,621.46568 633.54365,625.83631 C 634.44550,650.76943 624.23662,641.67618 624.52521,652.23609 C 625.42706,684.50247 618.21231,671.30259 613.70309,683.03582 C 600.17543,718.23553 594.99885,705.18230 593.86253,709.43560 C 588.45147,729.96876 581.20065,725.04079 578.53119,729.96876 C 572.21829,741.70199 565.90538,741.70199 563.19985,746.10196 C 550.57404,766.63512 543.41340,752.14457 541.55560,753.43522 C 512.69661,773.96838 499.16895,757.36586 494.65974,757.83519 C 481.13208,759.30184 483.20632,755.89920 479.32840,750.50192 C 422.51225,671.30259 389.14404,556.90356 382.83113,542.23703 C 380.25186,536.25307 374.75061,502.02136 376.51822,509.97062 C 380.12561,526.10383 378.32191,669.83593 368.40164,669.83593 C 358.48135,669.83593 357.57951,534.90375 363.89241,509.97062 C 365.87648,502.13869 362.21499,533.11443 357.50737,542.23703 C 347.65923,561.30352 317.30318,671.30259 259.74751,750.50192 C 255.83352,755.89920 257.92580,759.30184 244.21777,757.83519 C 239.67248,757.36586 225.94642,773.96838 196.72669,753.43522 C 194.85086,752.14457 187.58199,766.63512 174.79385,746.10196 C 172.05225,741.70199 165.66720,741.70199 159.26411,729.96876 C 156.57661,725.04079 149.21757,729.96876 143.73436,709.43560 C 142.59804,705.18230 137.34931,718.23553 123.64128,683.03582 C 119.07796,671.30259 111.75499,684.50247 112.67487,652.23609 C 112.98149,641.67618 102.62833,650.76943 103.54821,625.83631 C 103.71054,621.46568 92.581793,611.16977 98.966845,595.03657 C 101.41986,588.84729 92.581793,580.37003 99.886726,559.83687 C 102.79066,551.68228 81.994149,554.52758 101.70845,507.03733 C 105.36993,498.23740 101.70845,493.83743 111.75499,474.77093 C 112.02554,474.27227 114.49660,438.10458 131.86610,435.17127 C 134.73396,434.70194 89.840188,436.63792 90.760069,348.63867 C 90.796143,344.00404 93.844374,354.03596 90.760069,348.63867 C 79.793651,329.57217 75.284433,294.95913 73.390561,291.43915 C 62.424143,270.90599 65.165748,245.97288 65.165748,245.97288 C 65.165748,245.97288 33.366744,187.18938 28.641082,172.64016 C -62.715672,-107.49078 199.28792,122.06993 206.77323,130.10720 C 328.26959,260.63942 357.88614,363.30521 357.88614,363.30521 C 357.88614,363.30521 358.53547,355.82528 359.68982,351.57198 C 360.84419,347.34801 362.50358,346.26269 362.08873,345.70536 z "
     id="path4" />
  <path
     style="fill:#000000;stroke:none;stroke-width:1.0000000"
     d="M 360.80811,345.08936 C 346.37862,326.02286 365.02874,324.49754 364.86641,323.82287 C 339.16386,219.69043 297.71514,173.72549 294.52260,171.29084 C 284.67447,163.78157 279.91275,164.48557 281.64428,160.70161 C 283.37582,156.91764 294.77513,168.76820 296.32630,170.55751 C 341.86939,223.35707 366.67009,323.08955 366.67009,323.08955 C 366.67009,323.08955 369.82654,326.02286 370.27747,323.82287 C 388.31434,237.29028 424.38809,191.82400 436.56298,173.49082 C 448.73786,155.15765 455.14095,153.36833 438.36666,174.22415 C 386.51065,238.75694 371.64827,322.76689 372.53207,323.08955 C 393.27448,330.42282 373.43393,346.55602 374.33577,345.08936 C 379.78290,336.23078 379.74683,362.68921 379.74683,362.68921 C 379.74683,362.68921 410.40951,260.02342 530.35470,129.49119 C 537.73178,121.45393 796.39856,-108.10678 706.21421,172.02417 C 701.54266,186.54405 670.14046,245.35688 670.14046,245.35688 C 670.14046,245.35688 672.84599,270.29001 662.02387,290.82317 C 660.16607,294.34313 655.71096,328.95617 644.88884,348.02268 C 641.84061,353.41996 644.83473,343.38805 644.88884,348.02268 C 645.79069,436.02193 601.47409,434.08594 604.30588,434.55527 C 621.44090,437.48858 623.87588,473.65628 624.14643,474.15493 C 634.06672,493.22144 630.45935,497.62140 634.06672,506.42133 C 653.52851,553.91159 633.00255,551.06628 635.87040,559.22087 C 643.08516,579.75403 634.35531,588.23130 636.77225,594.42058 C 643.08516,610.55377 632.10069,620.82035 632.26303,625.22031 C 633.16487,650.15344 622.95601,641.06018 623.24459,651.62009 C 624.14643,683.88649 616.93169,670.68659 612.42247,682.41983 C 598.89482,717.61953 593.70020,704.56630 592.58191,708.81960 C 587.17085,729.35276 579.90199,724.42481 577.25057,729.35276 C 570.93767,741.08599 564.62477,741.08599 561.91923,745.48596 C 549.29342,766.01912 542.13278,751.49923 540.27498,752.81923 C 511.41599,773.35239 497.88833,756.72053 493.37912,757.21919 C 479.85146,758.68585 481.92570,755.28321 478.04778,749.88592 C 421.23164,670.68659 387.86341,556.28757 381.55051,541.62102 C 378.97124,535.60775 373.45196,501.40537 375.23761,509.35464 C 378.84498,525.48783 377.04130,669.21993 367.12102,669.21993 C 357.20073,669.21993 356.29889,534.28776 362.61180,509.35464 C 364.59586,501.52271 360.93437,532.46910 356.22675,541.62102 C 346.37862,560.68753 316.02256,670.68659 258.46690,749.88592 C 254.55290,755.28321 256.64518,758.68585 242.93715,757.21919 C 238.39187,756.72053 224.66580,773.35239 195.44607,752.81923 C 193.57024,751.49923 186.30138,766.01912 173.51323,745.48596 C 170.77163,741.08599 164.38658,741.08599 157.98349,729.35276 C 155.29599,724.42481 147.93695,729.35276 142.45374,708.81960 C 141.31742,704.56630 136.05065,717.61953 122.36067,682.41983 C 117.77930,670.68659 110.47437,683.88649 111.39425,651.62009 C 111.70087,641.06018 101.34771,650.15344 102.24956,625.22031 C 102.41189,620.82035 91.301175,610.55377 97.686227,594.42058 C 100.13924,588.23130 91.301175,579.75403 98.606108,559.22087 C 101.51004,551.06628 80.713532,553.91159 100.42783,506.42133 C 104.08932,497.62140 100.42783,493.22144 110.47437,474.15493 C 110.74492,473.65628 113.21598,437.48858 130.58548,434.55527 C 133.45334,434.08594 88.559570,436.02193 89.461414,348.02268 C 89.515525,343.38805 92.563756,353.41996 89.461414,348.02268 C 78.513033,328.95617 73.985778,294.34313 72.109943,290.82317 C 61.143525,270.29001 63.885130,245.35688 63.885130,245.35688 C 63.885130,245.35688 32.086125,186.54405 27.342428,172.02417 C -63.996290,-108.10678 198.00731,121.45393 205.49261,129.49119 C 326.98898,260.02342 356.60552,362.68921 356.60552,362.68921 C 356.60552,362.68921 357.25484,355.20928 358.40921,350.95598 C 359.56357,346.73203 361.22296,345.64670 360.80811,345.08936 z M 430.25007,384.68903 C 435.73328,384.39570 446.89810,393.63562 453.69800,390.55564 C 499.56576,369.84649 585.94434,388.91299 591.68007,392.02230 C 613.32432,403.75554 627.75382,320.15624 581.75979,320.15624 C 524.88953,320.15624 536.66761,314.28963 498.79018,305.48970 C 495.57961,304.75638 449.15271,332.76947 405.90030,372.95579 C 399.58738,378.82242 403.19476,386.15568 430.25007,384.68903 z M 395.98001,370.02249 C 400.56138,370.84382 423.03532,345.08936 493.37912,299.62308 C 497.65386,296.86578 497.88833,282.02323 535.76577,254.15680 C 538.23682,252.33816 534.86393,242.42357 561.01738,207.22388 C 573.94982,189.82935 529.45286,192.55733 519.53258,195.49064 C 509.61230,198.42395 485.26253,230.69034 485.26253,230.69034 C 485.26253,230.69034 512.64250,195.28530 503.29940,199.89060 C 482.55699,210.15718 428.44638,306.95636 410.40951,348.02268 C 392.37264,389.08899 440.17035,277.62327 451.89431,260.02342 C 463.61828,242.42357 362.61180,364.15587 395.98001,370.02249 z M 598.89482,312.82298 C 625.08436,321.35890 622.34275,258.55676 608.81509,255.62346 C 587.94644,251.10616 548.19317,253.21815 536.66761,260.02342 C 506.90677,277.62327 499.09681,295.31112 501.49571,296.68978 C 552.90080,326.02286 589.87638,309.88966 598.89482,312.82298 z M 597.99298,248.29020 C 608.67081,250.46083 626.85197,257.09011 627.75382,233.62365 C 628.20474,221.83175 653.00543,242.42357 658.41650,243.89023 C 662.88964,245.09289 639.47778,229.83967 631.36119,220.42376 C 625.04828,213.09049 623.94803,204.70123 623.24459,204.29057 C 565.52661,170.55751 541.17683,249.75685 541.17683,249.75685 C 541.17683,249.75685 590.77822,246.82354 597.99298,248.29020 z M 716.13448,119.22463 C 707.11605,95.758156 690.95501,102.97409 685.47180,92.824843 C 659.31834,44.425257 598.75052,106.49406 648.49622,100.15812 C 706.21421,92.824843 717.19866,122.01127 716.13448,119.22463 z M 672.84599,130.95785 C 697.21381,130.95785 708.01789,148.55770 706.21421,145.62440 C 693.58840,125.09124 682.76627,129.49119 680.06074,123.62458 C 663.97185,88.747546 616.02985,125.09124 619.63722,133.89116 C 623.24459,142.69109 666.53309,130.95785 672.84599,130.95785 z M 588.97454,158.82428 C 551.09711,173.49082 567.33029,195.49064 571.83951,194.02398 C 606.88515,182.64274 596.87468,155.77365 588.97454,158.82428 z M 607.91325,88.424885 C 590.77822,91.358191 589.62387,142.13376 597.99298,132.42451 C 610.61879,117.75797 625.04828,85.491573 607.91325,88.424885 z M 562.82107,157.35763 C 588.07269,141.22444 569.13398,133.89116 561.01738,135.35782 C 552.90080,136.82447 546.89452,156.85896 549.29342,164.69090 C 554.70448,182.29076 557.93309,160.49627 562.82107,157.35763 z M 642.18331,290.82317 C 650.29990,283.48989 640.37962,265.89004 633.16487,273.22331 C 625.95012,280.55658 634.06672,298.15643 642.18331,290.82317 z M 625.04828,166.15755 C 646.27768,200.68260 654.80912,182.29076 659.31834,179.35744 C 673.96428,169.82419 689.98102,195.49064 687.27548,191.09067 C 674.14465,169.73620 665.63124,173.49082 663.82756,169.09086 C 650.10149,135.59248 629.62965,156.82964 625.04828,157.35763 C 612.42247,158.82428 596.74843,173.22683 602.50219,170.55751 C 608.81509,167.62421 622.34275,161.75760 625.04828,166.15755 z M 685.47180,64.958417 C 698.09761,50.291874 681.46762,46.566573 678.25705,47.358566 C 666.53309,50.291874 672.84599,79.624958 685.47180,64.958417 z M 398.68554,466.82167 C 408.60582,485.88817 519.53258,771.88573 502.39756,676.55321 C 500.07080,663.58799 508.71046,716.15288 518.63074,686.81979 C 521.40841,678.60653 536.93816,677.75587 488.86990,547.48764 C 486.16437,540.15437 449.18878,516.68790 412.21320,450.68846 C 406.62177,440.68589 390.44269,450.98180 398.68554,466.82167 z M 498.79018,568.02080 C 506.90677,588.55396 527.09004,657.34004 528.55101,667.75328 C 533.06024,700.01968 545.68604,663.35333 548.39158,664.81998 C 572.12810,677.69720 554.70448,642.82017 552.90080,634.02024 C 536.36099,553.35426 497.88833,560.68753 497.88833,560.68753 C 497.88833,560.68753 490.67359,547.48764 498.79018,568.02080 z M 450.99247,686.81979 C 473.79107,739.53134 482.55699,719.08618 487.06622,713.21956 C 500.95461,695.15038 412.61001,510.87996 406.80214,499.08806 C 399.58738,484.42151 399.58738,568.02080 450.99247,686.81979 z M 534.86393,578.28738 C 546.58788,592.95392 559.64659,654.75873 566.42845,653.08674 C 584.46532,648.68678 573.64320,623.75366 578.15241,628.15362 C 582.66164,632.55359 591.68007,624.72166 588.97454,616.42039 C 566.42845,547.48764 531.25654,569.48745 531.25654,569.48745 C 531.25654,569.48745 523.13996,563.62084 534.86393,578.28738 z M 418.52610,430.15530 C 383.35420,430.15530 502.39756,588.55396 536.66761,557.75422 C 543.77414,551.35962 527.64917,547.48764 530.35470,513.75459 C 530.85973,507.59465 506.00493,496.15474 506.00493,458.02174 C 506.00493,445.58451 491.71973,440.42189 446.48325,440.42189 C 438.36666,440.42189 455.33935,430.15530 418.52610,430.15530 z M 548.39158,562.15418 C 581.34494,568.10880 589.17295,609.61511 593.48375,604.68715 C 644.88884,546.02099 552.48595,522.08519 535.76577,525.48783 C 528.55101,526.95448 540.27498,560.68753 548.39158,562.15418 z M 423.93717,416.95542 C 430.25007,424.28869 451.89431,453.62177 521.33627,428.68865 C 523.98769,427.75000 469.02935,427.22200 461.81459,424.28869 C 454.59985,421.35539 419.66242,411.99814 423.93717,416.95542 z M 543.88236,518.15455 C 611.52063,544.55434 593.66412,526.19182 596.18929,524.02118 C 611.52063,510.82129 594.76437,508.21065 597.09113,503.48802 C 604.68466,488.05881 584.46532,478.55490 542.07867,471.22162 C 532.05017,469.49097 512.17353,461.39504 511.41599,463.88836 C 505.10309,484.42151 535.24269,514.78126 543.88236,518.15455 z M 554.70448,469.75497 C 613.32432,485.88817 576.54713,455.99775 577.25057,455.08843 C 597.99298,428.68865 529.45286,428.68865 529.45286,428.68865 C 529.45286,428.68865 499.99865,440.06989 500.59387,441.88855 C 508.71046,466.82167 547.54384,467.78965 554.70448,469.75497 z M 443.77772,679.48652 C 443.77772,679.48652 391.47080,543.08768 402.29291,487.35483 C 404.47538,476.17892 378.84498,421.35539 390.56895,513.75459 C 390.74932,515.19192 388.35042,494.13077 384.25604,484.42151 C 380.16168,474.71226 374.44398,477.90957 377.94314,506.42133 C 386.76317,578.08205 443.77772,679.48652 443.77772,679.48652 z M 515.02336,180.82409 C 528.55101,174.95748 522.23811,167.62421 514.12152,164.69090 C 506.00493,161.75760 501.49571,186.69072 515.02336,180.82409 z M 331.55231,372.95579 C 287.75878,332.76947 240.71862,304.75638 237.45394,305.48970 C 199.08952,314.28963 211.02993,320.15624 153.42016,320.15624 C 106.83092,320.15624 121.44079,403.75554 143.37362,392.02230 C 149.18149,388.91299 236.67836,369.84649 283.14134,390.55564 C 290.01339,393.63562 301.34055,384.39570 306.89590,384.68903 C 334.29391,386.15568 337.95539,378.82242 331.55231,372.95579 z M 284.96307,260.02342 C 296.83132,277.62327 345.26032,389.08899 326.98898,348.02268 C 308.71763,306.95636 253.90358,210.15718 232.89061,199.89060 C 223.43929,195.28530 251.16197,230.69034 251.16197,230.69034 C 251.16197,230.69034 226.50557,198.42395 216.44099,195.49064 C 206.39445,192.55733 161.33835,189.82935 174.43312,207.22388 C 200.91125,242.42357 197.50228,252.33816 200.00941,254.15680 C 238.37383,282.02323 238.60831,296.86578 242.93715,299.62308 C 314.20083,345.08936 336.96337,370.84382 341.59884,370.02249 C 375.39994,364.15587 273.09480,242.42357 284.96307,260.02342 z M 234.71234,296.68978 C 237.16536,295.31112 229.24717,277.62327 199.08952,260.02342 C 187.41966,253.21815 147.14333,251.10616 126.00412,255.62346 C 112.31413,258.55676 109.53645,321.35890 136.05065,312.82298 C 145.19535,309.88966 182.63990,326.02286 234.71234,296.68978 z M 194.52619,249.75685 C 194.52619,249.75685 169.85175,170.55751 111.39425,204.29057 C 110.69082,204.70123 109.57252,213.09049 103.16944,220.42376 C 94.962660,229.83967 71.244173,245.09289 75.771428,243.89023 C 81.254638,242.42357 106.36196,221.83175 106.83092,233.62365 C 107.73276,257.09011 126.16644,250.46083 136.97054,248.29020 C 144.27547,246.82354 194.52619,249.75685 194.52619,249.75685 z M 85.817966,100.15812 C 136.19495,106.49406 74.851548,44.425257 48.355383,92.824843 C 42.800026,102.97409 26.440584,95.758156 17.295890,119.22463 C 16.213678,122.01127 27.342428,92.824843 85.817966,100.15812 z M 115.05573,133.89116 C 118.69919,125.09124 70.143925,88.747546 53.838592,123.62458 C 51.096988,129.49119 40.130570,125.09124 27.342428,145.62440 C 25.520704,148.55770 36.469085,130.95785 61.143525,130.95785 C 67.546615,130.95785 111.39425,142.69109 115.05573,133.89116 z M 146.11522,158.82428 C 184.47965,173.49082 168.03003,195.49064 163.46670,194.02398 C 127.97014,182.64274 138.10685,155.77365 146.11522,158.82428 z M 136.97054,132.42451 C 145.44786,142.13376 144.27547,91.358191 126.92400,88.424885 C 109.57252,85.491573 124.18239,117.75797 136.97054,132.42451 z M 186.30138,164.69090 C 188.73636,156.85896 182.63990,136.82447 174.43312,135.35782 C 166.20830,133.89116 147.01707,141.22444 172.59336,157.35763 C 177.55349,160.49627 180.81817,182.29076 186.30138,164.69090 z M 101.34771,273.22331 C 94.042779,265.89004 83.978205,283.48989 92.203019,290.82317 C 100.42783,298.15643 108.65265,280.55658 101.34771,273.22331 z M 132.40720,170.55751 C 138.23312,173.22683 122.36067,158.82428 109.57252,157.35763 C 104.91901,156.82964 84.194648,135.59248 70.288219,169.09086 C 68.448459,173.49082 59.826834,169.73620 46.533660,191.09067 C 43.792055,195.49064 60.007202,169.82419 74.851548,179.35744 C 79.414877,182.29076 88.072575,200.68260 109.57252,166.15755 C 112.31413,161.75760 126.00412,167.62421 132.40720,170.55751 z M 55.660317,47.358566 C 52.413680,46.566573 35.567242,50.291874 48.355383,64.958417 C 61.143525,79.624958 67.546615,50.291874 55.660317,47.358566 z M 325.16725,450.68846 C 287.70467,516.68790 250.24209,540.15437 247.50048,547.48764 C 198.81897,677.75587 214.54712,678.60653 217.36087,686.81979 C 227.40741,716.15288 236.17333,663.58799 233.81050,676.55321 C 216.44099,771.88573 328.81070,485.88817 338.85724,466.82167 C 347.20831,450.98180 330.83083,440.68589 325.16725,450.68846 z M 238.37383,560.68753 C 238.37383,560.68753 199.39615,553.35426 182.63990,634.02024 C 180.81817,642.82017 163.17811,677.69720 187.22126,664.81998 C 189.96287,663.35333 202.75101,700.01968 207.31433,667.75328 C 208.79335,657.34004 229.24717,588.55396 237.45394,568.02080 C 245.67876,547.48764 238.37383,560.68753 238.37383,560.68753 z M 330.63243,499.08806 C 324.77045,510.87996 235.27149,695.15038 249.34025,713.21956 C 253.90358,719.08618 262.77771,739.53134 285.88295,686.81979 C 337.95539,568.02080 337.95539,484.42151 330.63243,499.08806 z M 204.57273,569.48745 C 204.57273,569.48745 168.94990,547.48764 146.11522,616.42039 C 143.35558,624.72166 152.50028,632.55359 157.06361,628.15362 C 161.64498,623.75366 150.67855,648.68678 168.94990,653.08674 C 175.82195,654.75873 189.04298,592.95392 200.91125,578.28738 C 212.79755,563.62084 204.57273,569.48745 204.57273,569.48745 z M 290.44628,440.42189 C 244.61458,440.42189 230.14901,445.58451 230.14901,458.02174 C 230.14901,496.15474 204.98757,507.59465 205.49261,513.75459 C 208.23422,547.48764 191.89281,551.35962 199.08952,557.75422 C 233.81050,588.55396 354.38699,430.15530 318.76416,430.15530 C 281.48195,430.15530 298.67109,440.42189 290.44628,440.42189 z M 200.00941,525.48783 C 183.07278,522.08519 89.461414,546.02099 141.53387,604.68715 C 145.89878,609.61511 153.83501,568.10880 187.22126,562.15418 C 195.44607,560.68753 207.31433,526.95448 200.00941,525.48783 z M 274.91653,424.28869 C 267.61160,427.22200 211.94980,427.75000 214.61926,428.68865 C 284.96307,453.62177 306.89590,424.28869 313.28096,416.95542 C 317.60980,411.99814 282.22147,421.35539 274.91653,424.28869 z M 224.66580,463.88836 C 223.89021,461.39504 203.76107,469.49097 193.60631,471.22162 C 150.67855,478.55490 130.18868,488.05881 137.89041,503.48802 C 140.23520,508.21065 123.26252,510.82129 138.79226,524.02118 C 141.35350,526.19182 123.26252,544.55434 191.78458,518.15455 C 200.53247,514.78126 231.06890,484.42151 224.66580,463.88836 z M 235.63222,441.88855 C 236.24547,440.06989 206.39445,428.68865 206.39445,428.68865 C 206.39445,428.68865 136.97054,428.68865 157.98349,455.08843 C 158.70497,455.99775 121.44079,485.88817 180.81817,469.75497 C 188.08703,467.78965 227.40741,466.82167 235.63222,441.88855 z M 359.87019,506.42133 C 363.42346,477.90957 357.61558,474.71226 353.48515,484.42151 C 349.33666,494.13077 346.90168,515.19192 347.08205,513.75459 C 358.96835,421.35539 333.01329,476.17892 335.21379,487.35483 C 346.16218,543.08768 293.18788,679.48652 293.18788,679.48652 C 293.18788,679.48652 350.94194,578.08205 359.87019,506.42133 z M 221.92420,164.69090 C 213.69939,167.62421 207.31433,174.95748 221.02236,180.82409 C 234.71234,186.69072 230.14901,161.75760 221.92420,164.69090 z "
     id="path6" />
  <path
     style="fill:#fff6e3;stroke:none;stroke-width:1.0000000"
     d="M 649.59647,187.01338 C 641.55201,188.65603 634.26513,189.94669 632.46144,173.81349 C 630.65774,157.68029 635.16697,151.81367 648.69462,157.68029 C 662.22227,163.54691 671.24071,182.61342 649.59647,187.01338 z M 583.76188,197.27996 C 583.76188,197.27996 549.99686,210.24518 581.05635,172.34683 C 595.48585,154.74699 596.38769,169.41354 597.28953,178.21345 C 598.64230,191.32535 583.76188,197.27996 583.76188,197.27996 z M 686.57205,78.480968 C 671.51126,73.582342 672.14255,59.414464 688.37574,53.547846 C 691.02715,52.609188 695.59048,81.414277 686.57205,78.480968 z M 695.59048,78.480968 C 700.09971,77.014314 707.31445,79.947622 708.21629,90.214199 C 709.11814,100.48078 701.90339,106.34739 697.39418,100.48078 C 692.88495,94.614164 691.08127,79.947622 695.59048,78.480968 z M 684.76837,110.74736 C 689.27758,107.81404 702.80524,112.21401 701.90339,121.01394 C 701.00155,129.81386 690.17942,131.28052 685.67021,126.88055 C 681.16099,122.48060 680.25915,113.68067 684.76837,110.74736 z M 686.57205,162.08026 C 691.98311,154.74699 698.29602,162.08026 700.09971,166.48022 C 701.90339,170.88018 692.88495,176.74680 690.17942,178.21345 C 687.47389,179.68010 681.16099,169.41354 686.57205,162.08026 z M 707.31445,53.547846 C 707.31445,53.547846 714.52920,53.547846 712.72552,57.947809 C 710.92182,62.347771 705.51076,62.347771 705.51076,62.347771 L 707.31445,53.547846 z M 718.13658,79.947622 C 718.13658,79.947622 725.35132,79.947622 723.54763,84.347585 C 721.74395,88.747546 716.33289,88.747546 716.33289,88.747546 L 718.13658,79.947622 z M 659.51674,220.74642 C 659.51674,220.74642 668.53518,226.61305 666.73150,231.01300 C 664.92781,235.41296 662.22227,242.74624 655.90937,232.47966 C 649.59647,222.21308 659.51674,220.74642 659.51674,220.74642 z M 635.16697,277.94595 C 640.57803,270.61267 646.89093,277.94595 648.69462,282.34590 C 650.49831,286.74586 641.47987,292.61248 638.77434,294.07914 C 636.06881,295.54579 629.75590,285.27921 635.16697,277.94595 z M 638.77434,248.61286 C 644.18540,241.27958 648.69462,251.54616 650.49831,255.94613 C 652.30200,260.34608 645.08724,263.27940 642.38171,264.74605 C 639.67618,266.21270 633.36328,255.94613 638.77434,248.61286 z M 608.11166,150.34702 C 601.67249,150.93369 590.97663,145.94706 607.20982,128.34720 C 622.21649,112.09668 621.63931,116.61397 622.54116,125.41391 C 623.89392,138.52578 614.55083,149.78969 608.11166,150.34702 z M 553.09920,176.74680 C 553.09920,176.74680 546.78629,167.94688 559.41211,150.34702 C 573.12013,131.28052 571.13608,138.61379 572.03792,147.41372 C 573.39068,160.52560 553.09920,176.74680 553.09920,176.74680 z M 609.01350,99.014129 C 609.01350,99.014129 619.83563,96.080816 618.03194,100.48078 C 616.22825,104.88074 611.71903,121.01394 605.40613,110.74736 C 599.09322,100.48078 609.01350,99.014129 609.01350,99.014129 z M 669.43702,188.48003 C 671.92611,188.48003 673.94624,191.79467 673.94624,195.81330 C 673.94624,199.86126 671.92611,203.14657 669.43702,203.14657 C 666.96598,203.14657 664.92781,199.86126 664.92781,195.81330 C 664.92781,191.79467 666.96598,188.48003 669.43702,188.48003 z M 660.41858,260.34608 C 662.90767,260.34608 664.92781,263.66072 664.92781,267.67935 C 664.92781,271.72732 662.90767,275.01263 660.41858,275.01263 C 657.94754,275.01263 655.90937,271.72732 655.90937,267.67935 C 655.90937,263.66072 657.94754,260.34608 660.41858,260.34608 z M 653.20384,289.67917 C 655.69293,289.67917 657.71305,292.99381 657.71305,297.01244 C 657.71305,301.06041 655.69293,304.34571 653.20384,304.34571 C 650.73278,304.34571 648.69462,301.06041 648.69462,297.01244 C 648.69462,292.99381 650.73278,289.67917 653.20384,289.67917 z M 624.34484,308.74567 C 626.83393,308.74567 628.85406,312.06031 628.85406,316.07895 C 628.85406,320.12691 626.83393,323.41221 624.34484,323.41221 C 621.87380,323.41221 619.83563,320.12691 619.83563,316.07895 C 619.83563,312.06031 621.87380,308.74567 624.34484,308.74567 z M 639.67618,313.14564 C 642.16527,313.14564 646.89093,319.39359 646.89093,323.41221 C 646.89093,327.46018 642.16527,327.81218 639.67618,327.81218 C 637.20514,327.81218 635.16697,324.52688 635.16697,320.47892 C 635.16697,316.46028 637.20514,313.14564 639.67618,313.14564 z M 682.96468,198.74661 C 685.45377,198.74661 687.47389,202.06125 687.47389,206.07989 C 687.47389,210.12785 685.45377,213.41315 682.96468,213.41315 C 680.49362,213.41315 678.45545,210.12785 678.45545,206.07989 C 678.45545,202.06125 680.49362,198.74661 682.96468,198.74661 z M 707.31445,129.81386 C 709.80354,129.81386 711.82368,133.12850 711.82368,137.14713 C 711.82368,141.19510 709.80354,144.48041 707.31445,144.48041 C 704.84340,144.48041 702.80524,141.19510 702.80524,137.14713 C 702.80524,133.12850 704.84340,129.81386 707.31445,129.81386 z M 535.96417,153.28033 C 540.14873,156.00831 560.31395,134.21383 554.00105,131.28052 C 547.68814,128.34720 531.45495,150.34702 535.96417,153.28033 z M 570.23423,115.14732 C 574.74345,116.61397 588.27110,107.81404 581.95819,104.88074 C 575.64529,101.94744 565.47250,113.62201 570.23423,115.14732 z M 483.65724,204.61323 C 493.57753,195.81330 521.53467,173.81349 508.00702,176.74680 C 494.47937,179.68010 475.14384,212.18116 483.65724,204.61323 z M 650.49831,59.414464 C 655.00753,60.881117 668.53518,52.081192 662.22227,49.147885 C 655.90937,46.214576 645.73657,57.889143 650.49831,59.414464 z M 520.63283,166.48022 C 525.14205,167.94688 534.16048,160.61360 527.84758,157.68029 C 521.53467,154.74699 515.87110,164.95491 520.63283,166.48022 z M 634.26513,349.81199 C 636.75422,349.81199 638.77434,354.59328 638.77434,358.61192 C 638.77434,362.65989 637.65606,363.01188 635.16697,363.01188 C 632.69591,363.01188 630.65774,359.72657 630.65774,355.67861 C 630.65774,351.65997 631.79407,349.81199 634.26513,349.81199 z M 620.73747,348.34534 C 623.22656,348.34534 627.05037,350.19331 627.05037,354.21195 C 627.05037,358.25992 622.32472,357.14527 619.83563,357.14527 C 617.36457,357.14527 615.32640,353.85996 615.32640,349.81199 C 615.32640,345.79336 618.26641,348.34534 620.73747,348.34534 z M 624.34484,390.87831 C 626.83393,390.87831 631.55959,397.12626 631.55959,401.14489 C 631.55959,405.19286 626.83393,405.54485 624.34484,405.54485 C 621.87380,405.54485 619.83563,402.25954 619.83563,398.21158 C 619.83563,394.19294 621.87380,390.87831 624.34484,390.87831 z M 602.70060,451.01114 C 609.91535,448.07782 609.91535,453.94443 611.71903,464.21102 C 613.52272,474.47759 626.27479,507.85864 605.40613,467.14433 C 600.89692,458.34440 595.48585,453.94443 602.70060,451.01114 z M 624.34484,486.21084 C 626.83393,486.21084 628.85406,489.52547 628.85406,493.54411 C 628.85406,497.59207 626.83393,500.87737 624.34484,500.87737 C 621.87380,500.87737 619.83563,497.59207 619.83563,493.54411 C 619.83563,489.52547 621.87380,486.21084 624.34484,486.21084 z M 628.85406,512.61061 C 631.34315,512.61061 633.36328,515.92525 633.36328,519.94387 C 633.36328,523.99184 631.34315,527.27714 628.85406,527.27714 C 626.38301,527.27714 624.34484,523.99184 624.34484,519.94387 C 624.34484,515.92525 626.38301,512.61061 628.85406,512.61061 z M 629.16068,539.01038 C 631.63174,539.01038 635.16697,548.19164 635.16697,552.21027 C 635.16697,556.25824 633.14683,559.54355 630.65774,559.54355 C 628.18670,559.54355 623.15441,554.79158 623.15441,550.74362 C 623.15441,546.72498 626.67160,539.01038 629.16068,539.01038 z M 631.55959,585.94332 C 634.04868,585.94332 633.36328,586.32465 633.36328,590.34328 C 633.36328,594.39124 633.14683,591.80993 630.65774,591.80993 C 628.18670,591.80993 628.85406,594.39124 628.85406,590.34328 C 628.85406,586.32465 629.08854,585.94332 631.55959,585.94332 z M 607.20982,489.14414 C 609.69890,489.14414 609.01350,489.52547 609.01350,493.54411 C 609.01350,497.59207 608.79706,495.01075 606.30797,495.01075 C 603.83693,495.01075 604.50429,497.59207 604.50429,493.54411 C 604.50429,489.52547 604.73877,489.14414 607.20982,489.14414 z M 612.62087,525.81049 C 615.10996,525.81049 614.42456,526.19182 614.42456,530.21046 C 614.42456,534.25843 614.80334,544.87700 612.33229,544.87700 C 609.84320,544.87700 609.91535,534.25843 609.91535,530.21046 C 609.91535,526.19182 610.14983,525.81049 612.62087,525.81049 z M 618.93379,566.87681 C 621.42287,566.87681 620.73747,567.25813 620.73747,571.27677 C 620.73747,575.32474 620.52103,572.74343 618.03194,572.74343 C 615.56088,572.74343 616.22825,575.32474 616.22825,571.27677 C 616.22825,567.25813 616.46273,566.87681 618.93379,566.87681 z M 607.82307,606.47647 C 610.29412,606.47647 609.91535,606.85781 609.91535,610.87644 C 609.91535,614.92440 609.39228,612.34309 606.92122,612.34309 C 604.43213,612.34309 605.40613,614.92440 605.40613,610.87644 C 605.40613,606.85781 605.33398,606.47647 607.82307,606.47647 z M 623.74963,616.27372 C 626.22067,616.27372 628.56547,621.99367 628.56547,626.04164 C 628.56547,630.06027 623.22656,637.27622 620.73747,637.27622 C 618.26641,637.27622 618.93379,639.85752 618.93379,635.80955 C 618.93379,631.79092 621.26054,616.27372 623.74963,616.27372 z M 613.52272,658.30803 C 616.01181,658.30803 620.14225,657.19337 620.14225,661.24134 C 620.14225,665.25997 614.20812,672.47591 611.71903,672.47591 C 609.24798,672.47591 609.91535,675.05722 609.91535,671.00925 C 609.91535,666.99063 611.05167,658.30803 613.52272,658.30803 z M 598.19138,637.27622 C 600.68046,637.27622 599.99506,637.65754 599.99506,641.67618 C 599.99506,645.72414 599.77862,643.14283 597.28953,643.14283 C 594.81849,643.14283 595.48585,645.72414 595.48585,641.67618 C 595.48585,637.65754 595.72033,637.27622 598.19138,637.27622 z M 593.68216,693.50774 C 596.17125,693.50774 598.49801,698.25969 598.49801,702.30765 C 598.49801,706.32629 594.36756,704.74231 591.87848,704.74231 C 589.40743,704.74231 590.07479,707.32362 590.07479,703.27565 C 590.07479,699.25702 591.21111,693.50774 593.68216,693.50774 z M 578.65744,709.14227 C 581.12850,709.14227 579.86592,713.92356 579.86592,717.94219 C 579.86592,721.99016 570.91963,731.14208 568.43054,731.14208 C 565.95949,731.14208 566.62685,733.72339 566.62685,729.67543 C 566.62685,725.65679 576.16836,709.14227 578.65744,709.14227 z M 580.15451,662.20934 C 582.64359,662.20934 581.95819,662.59066 581.95819,666.60930 C 581.95819,670.65726 581.74175,668.07596 579.25266,668.07596 C 576.78161,668.07596 577.44898,670.65726 577.44898,666.60930 C 577.44898,662.59066 577.68346,662.20934 580.15451,662.20934 z M 558.51026,687.14246 C 560.99935,687.14246 569.04380,692.39308 569.04380,696.44104 C 569.04380,700.45967 558.88903,707.20629 556.41798,707.20629 C 553.92890,707.20629 552.19735,700.45967 552.19735,696.44104 C 552.19735,692.39308 556.03921,687.14246 558.51026,687.14246 z M 535.06233,700.34234 C 537.55141,700.34234 536.86601,700.72367 536.86601,704.74231 C 536.86601,708.79027 536.64957,706.20896 534.16048,706.20896 C 531.68943,706.20896 532.35680,708.79027 532.35680,704.74231 C 532.35680,700.72367 532.59128,700.34234 535.06233,700.34234 z M 549.49182,735.54203 C 551.98091,735.54203 551.29551,735.92338 551.29551,739.94200 C 551.29551,743.98997 551.07907,741.40866 548.58998,741.40866 C 546.11893,741.40866 546.78629,743.98997 546.78629,739.94200 C 546.78629,735.92338 547.02078,735.54203 549.49182,735.54203 z M 544.08077,738.47535 C 546.56985,738.47535 545.88445,738.85669 545.88445,742.87531 C 545.88445,746.92327 545.66801,744.34197 543.17892,744.34197 C 540.70786,744.34197 541.37524,746.92327 541.37524,742.87531 C 541.37524,738.85669 541.60972,738.47535 544.08077,738.47535 z M 523.33837,739.47267 C 524.99776,739.47267 526.94574,743.60864 526.94574,746.30728 C 526.94574,749.00593 526.80144,747.27528 525.14205,747.27528 C 523.50069,747.27528 519.13578,750.94191 519.13578,748.27260 C 519.13578,745.57395 521.69701,739.47267 523.33837,739.47267 z M 528.74942,747.27528 C 530.40881,747.27528 529.95789,747.53927 529.95789,750.20858 C 529.95789,752.90723 529.81359,751.20591 528.15421,751.20591 C 526.49482,751.20591 526.94574,752.90723 526.94574,750.20858 C 526.94574,747.53927 527.10807,747.27528 528.74942,747.27528 z M 519.13578,709.14227 C 520.79516,709.14227 523.33837,719.17418 523.33837,721.87283 C 523.33837,724.54214 517.78300,723.80881 516.12361,723.80881 C 514.48225,723.80881 511.92102,715.74221 511.92102,713.07290 C 511.92102,710.37426 517.47638,709.14227 519.13578,709.14227 z M 498.69999,741.40866 C 501.17105,741.40866 500.79227,741.78999 500.79227,745.80863 C 500.79227,749.85659 500.26921,747.27528 497.79815,747.27528 C 495.30906,747.27528 496.28306,749.85659 496.28306,745.80863 C 496.28306,741.78999 496.21090,741.40866 498.69999,741.40866 z M 493.28893,720.87550 C 495.75998,720.87550 492.08047,730.52608 492.08047,734.57405 C 492.08047,738.59268 484.03602,739.94200 481.56496,739.94200 C 479.07588,739.94200 483.65724,734.69138 483.65724,730.67275 C 483.65724,726.62479 490.79984,720.87550 493.28893,720.87550 z M 87.747911,184.57873 C 95.810393,186.22139 103.07925,187.51204 104.88294,171.37884 C 106.68662,155.24565 102.17741,149.37903 88.649755,155.24565 C 75.122101,161.11226 66.103665,180.17877 87.747911,184.57873 z M 153.58249,194.84531 C 153.58249,194.84531 187.34751,207.78120 156.28802,169.91219 C 141.85852,152.31234 140.95668,166.97888 140.05484,175.77881 C 138.72011,188.89069 153.58249,194.84531 153.58249,194.84531 z M 50.772325,76.046322 C 65.833112,71.147697 65.201822,56.979817 48.968637,51.113201 C 46.335254,50.145208 41.753889,78.979631 50.772325,76.046322 z M 41.753889,76.046322 C 37.244671,74.579668 30.029921,77.512976 29.128078,87.779557 C 28.226234,98.046132 35.440983,103.91275 39.950202,98.046132 C 44.459420,92.179522 46.263107,77.512976 41.753889,76.046322 z M 52.576012,108.31271 C 48.066794,105.37940 34.539139,109.77937 35.440983,118.57929 C 36.342827,127.37922 47.164950,128.84587 51.674168,124.44591 C 56.183386,120.04594 57.085230,111.24603 52.576012,108.31271 z M 50.772325,159.64561 C 45.361263,152.31234 39.048358,159.64561 37.244671,164.04557 C 35.440983,168.44554 44.459420,174.31216 47.164950,175.77881 C 49.870481,177.24546 56.183386,166.97888 50.772325,159.64561 z M 30.029921,51.113201 C 30.029921,51.113201 22.815173,51.113201 24.618860,55.513164 C 26.422547,59.913126 31.833609,59.913126 31.833609,59.913126 L 30.029921,51.113201 z M 19.207799,77.512976 C 19.207799,77.512976 11.993050,77.512976 13.796737,81.912939 C 15.600424,86.312904 21.011486,86.312904 21.011486,86.312904 L 19.207799,77.512976 z M 77.827632,218.31178 C 77.827632,218.31178 68.809196,224.17840 70.612883,228.57835 C 72.416570,232.97832 75.122101,240.31160 81.435006,230.04501 C 87.747911,219.77844 77.827632,218.31178 77.827632,218.31178 z M 102.17741,275.51129 C 96.766347,268.17802 90.453442,275.51129 88.649755,279.91125 C 86.846067,284.31122 95.864503,290.17783 98.570034,291.64448 C 101.27556,293.11114 107.58847,282.84457 102.17741,275.51129 z M 98.570034,246.17820 C 93.158972,238.84494 88.649755,249.11151 86.846067,253.51148 C 85.042380,257.91144 92.257129,260.84475 94.962660,262.31141 C 97.668190,263.77806 103.98110,253.51148 98.570034,246.17820 z M 129.23272,147.91238 C 135.67188,148.49904 146.36775,143.51241 130.13456,125.91256 C 115.12789,109.63270 115.70506,114.17933 114.80322,122.97926 C 113.46849,136.09114 122.79355,147.32572 129.23272,147.91238 z M 184.24517,174.31216 C 184.24517,174.31216 190.55807,165.51223 177.93227,147.91238 C 164.24228,128.81654 166.20830,136.17915 165.30646,144.97907 C 163.97173,158.09096 184.24517,174.31216 184.24517,174.31216 z M 128.33088,96.579479 C 128.33088,96.579479 117.50875,93.646174 119.31244,98.046132 C 121.11612,102.44610 125.62534,118.57929 131.93825,108.31271 C 138.25115,98.046132 128.33088,96.579479 128.33088,96.579479 z M 67.907352,186.04538 C 65.436301,186.04538 63.398135,189.36002 63.398135,193.37865 C 63.398135,197.42662 65.436301,200.71193 67.907352,200.71193 C 70.396441,200.71193 72.416570,197.42662 72.416570,193.37865 C 72.416570,189.36002 70.396441,186.04538 67.907352,186.04538 z M 76.925788,257.91144 C 74.454737,257.91144 72.416570,261.22608 72.416570,265.24471 C 72.416570,269.29268 74.454737,272.57798 76.925788,272.57798 C 79.414877,272.57798 81.435006,269.29268 81.435006,265.24471 C 81.435006,261.22608 79.414877,257.91144 76.925788,257.91144 z M 84.140537,287.24453 C 81.669485,287.24453 79.631319,290.55916 79.631319,294.57779 C 79.631319,298.62575 81.669485,301.91106 84.140537,301.91106 C 86.629625,301.91106 88.649755,298.62575 88.649755,294.57779 C 88.649755,290.55916 86.629625,287.24453 84.140537,287.24453 z M 112.99954,306.31103 C 110.52848,306.31103 108.49031,309.62567 108.49031,313.64429 C 108.49031,317.69226 110.52848,320.97757 112.99954,320.97757 C 115.48862,320.97757 117.50875,317.69226 117.50875,313.64429 C 117.50875,309.62567 115.48862,306.31103 112.99954,306.31103 z M 97.668190,310.71099 C 95.197139,310.71099 90.453442,316.95895 90.453442,320.97757 C 90.453442,325.02554 95.197139,325.37754 97.668190,325.37754 C 100.15728,325.37754 102.17741,322.09223 102.17741,318.04426 C 102.17741,314.02563 100.15728,310.71099 97.668190,310.71099 z M 54.379699,196.31197 C 51.908647,196.31197 49.870481,199.62661 49.870481,203.64523 C 49.870481,207.69321 51.908647,210.97851 54.379699,210.97851 C 56.868786,210.97851 58.888917,207.69321 58.888917,203.64523 C 58.888917,199.62661 56.868786,196.31197 54.379699,196.31197 z M 30.029921,127.37922 C 27.558871,127.37922 25.520704,130.69386 25.520704,134.71249 C 25.520704,138.76046 27.558871,142.04575 30.029921,142.04575 C 32.519010,142.04575 34.539139,138.76046 34.539139,134.71249 C 34.539139,130.69386 32.519010,127.37922 30.029921,127.37922 z M 201.38020,150.84568 C 197.19565,153.57367 177.03043,131.77919 183.34333,128.84587 C 189.65623,125.91256 205.88942,147.91238 201.38020,150.84568 z M 167.11015,112.71268 C 162.60093,114.17933 149.07328,105.37940 155.38618,102.44610 C 161.69909,99.512792 171.87188,111.15803 167.11015,112.71268 z M 253.68714,202.17858 C 243.76685,193.37865 215.80970,171.37884 229.33735,174.31216 C 242.86501,177.24546 262.21857,209.74652 253.68714,202.17858 z M 86.846067,56.979817 C 82.336850,58.446471 68.809196,49.646546 75.122101,46.713239 C 81.435006,43.779930 91.607801,55.425164 86.846067,56.979817 z M 216.71154,164.04557 C 212.20233,165.51223 203.18389,158.17896 209.49680,155.24565 C 215.80970,152.31234 221.47328,162.49093 216.71154,164.04557 z M 103.07925,347.37735 C 100.60820,347.37735 98.570034,352.15864 98.570034,356.17727 C 98.570034,360.22524 99.706358,360.57723 102.17741,360.57723 C 104.66650,360.57723 106.68662,357.29193 106.68662,353.24396 C 106.68662,349.22533 105.56834,347.37735 103.07925,347.37735 z M 116.60691,345.91069 C 114.13585,345.91069 110.29400,347.75867 110.29400,351.77731 C 110.29400,355.82528 115.03770,354.71061 117.50875,354.71061 C 119.99784,354.71061 122.01797,351.42531 122.01797,347.37735 C 122.01797,343.35871 119.09600,345.91069 116.60691,345.91069 z M 112.99954,388.44366 C 110.52848,388.44366 105.78478,394.69161 105.78478,398.71024 C 105.78478,402.75822 110.52848,403.11020 112.99954,403.11020 C 115.48862,403.11020 117.50875,399.82490 117.50875,395.77694 C 117.50875,391.75830 115.48862,388.44366 112.99954,388.44366 z M 134.64378,448.57649 C 127.42902,445.64317 127.42902,451.50979 125.62534,461.77637 C 123.82165,472.04295 111.08762,505.42400 131.93825,464.70968 C 136.44746,455.90976 141.85852,451.50979 134.64378,448.57649 z M 112.99954,483.77619 C 110.52848,483.77619 108.49031,487.06149 108.49031,491.10946 C 108.49031,495.12809 110.52848,498.44273 112.99954,498.44273 C 115.48862,498.44273 117.50875,495.12809 117.50875,491.10946 C 117.50875,487.06149 115.48862,483.77619 112.99954,483.77619 z M 108.49031,510.17595 C 106.01926,510.17595 103.98110,513.46126 103.98110,517.50923 C 103.98110,521.52787 106.01926,524.84250 108.49031,524.84250 C 110.97940,524.84250 112.99954,521.52787 112.99954,517.50923 C 112.99954,513.46126 110.97940,510.17595 108.49031,510.17595 z M 108.20173,536.57574 C 105.71264,536.57574 102.17741,545.72765 102.17741,549.77562 C 102.17741,553.79426 104.21558,557.10889 106.68662,557.10889 C 109.17571,557.10889 114.20800,552.32760 114.20800,548.30897 C 114.20800,544.26100 110.67277,536.57574 108.20173,536.57574 z M 105.78478,583.50867 C 103.31373,583.50867 103.98110,583.86067 103.98110,587.90864 C 103.98110,591.92726 104.21558,589.37529 106.68662,589.37529 C 109.17571,589.37529 108.49031,591.92726 108.49031,587.90864 C 108.49031,583.86067 108.27387,583.50867 105.78478,583.50867 z M 130.13456,486.70949 C 127.66350,486.70949 128.33088,487.06149 128.33088,491.10946 C 128.33088,495.12809 128.56535,492.57611 131.03641,492.57611 C 133.52549,492.57611 132.84009,495.12809 132.84009,491.10946 C 132.84009,487.06149 132.62365,486.70949 130.13456,486.70949 z M 124.72349,523.37585 C 122.25245,523.37585 122.91981,523.72784 122.91981,527.77581 C 122.91981,531.79444 122.55907,542.44236 125.03013,542.44236 C 127.51922,542.44236 127.42902,531.79444 127.42902,527.77581 C 127.42902,523.72784 127.21258,523.37585 124.72349,523.37585 z M 118.41059,564.44217 C 115.93955,564.44217 116.60691,564.79416 116.60691,568.84213 C 116.60691,572.86076 116.84139,570.30878 119.31244,570.30878 C 121.80153,570.30878 121.11612,572.86076 121.11612,568.84213 C 121.11612,564.79416 120.89968,564.44217 118.41059,564.44217 z M 129.53934,604.04183 C 127.06829,604.04183 127.42902,604.39383 127.42902,608.44179 C 127.42902,612.46042 127.97014,609.90845 130.44119,609.90845 C 132.93028,609.90845 131.93825,612.46042 131.93825,608.44179 C 131.93825,604.39383 132.02843,604.04183 129.53934,604.04183 z M 113.61278,613.80974 C 111.12370,613.80974 108.79695,619.55903 108.79695,623.60700 C 108.79695,627.62562 114.13585,634.84157 116.60691,634.84157 C 119.09600,634.84157 118.41059,637.39354 118.41059,633.37491 C 118.41059,629.32695 116.08383,613.80974 113.61278,613.80974 z M 123.82165,655.87339 C 121.35060,655.87339 117.22016,654.75873 117.22016,658.80669 C 117.22016,662.82533 123.15429,670.04126 125.62534,670.04126 C 128.11443,670.04126 127.42902,672.59325 127.42902,668.57461 C 127.42902,664.52665 126.31074,655.87339 123.82165,655.87339 z M 139.15299,634.84157 C 136.68195,634.84157 137.34931,635.19356 137.34931,639.24152 C 137.34931,643.26016 137.58379,640.70818 140.05484,640.70818 C 142.54392,640.70818 141.85852,643.26016 141.85852,639.24152 C 141.85852,635.19356 141.64208,634.84157 139.15299,634.84157 z M 143.66222,691.07309 C 141.19116,691.07309 138.86441,695.82505 138.86441,699.87301 C 138.86441,703.89165 142.99485,702.30765 145.46590,702.30765 C 147.95499,702.30765 147.26959,704.85964 147.26959,700.84101 C 147.26959,696.79304 146.15131,691.07309 143.66222,691.07309 z M 158.70497,706.70762 C 156.21588,706.70762 157.49650,711.45959 157.49650,715.50755 C 157.49650,719.52617 166.44278,728.70743 168.91383,728.70743 C 171.40292,728.70743 170.71752,731.25941 170.71752,727.24077 C 170.71752,723.19281 161.17601,706.70762 158.70497,706.70762 z M 157.18986,659.77468 C 154.71882,659.77468 155.38618,660.12669 155.38618,664.17465 C 155.38618,668.19329 155.62066,665.64130 158.09171,665.64130 C 160.58079,665.64130 159.89540,668.19329 159.89540,664.17465 C 159.89540,660.12669 159.67895,659.77468 157.18986,659.77468 z M 178.83412,684.70781 C 176.36306,684.70781 168.31861,689.95843 168.31861,694.00639 C 168.31861,698.02503 178.47338,704.74231 180.94443,704.74231 C 183.43351,704.74231 185.14702,698.02503 185.14702,694.00639 C 185.14702,689.95843 181.32320,684.70781 178.83412,684.70781 z M 202.28204,697.90770 C 199.81100,697.90770 200.47836,698.25969 200.47836,702.30765 C 200.47836,706.32629 200.71284,703.77431 203.18389,703.77431 C 205.67298,703.77431 204.98757,706.32629 204.98757,702.30765 C 204.98757,698.25969 204.77113,697.90770 202.28204,697.90770 z M 187.85255,733.10739 C 185.38150,733.10739 186.04886,733.45940 186.04886,737.50736 C 186.04886,741.52599 186.28334,738.97402 188.75439,738.97402 C 191.24348,738.97402 190.55807,741.52599 190.55807,737.50736 C 190.55807,733.45940 190.34163,733.10739 187.85255,733.10739 z M 193.26361,736.04071 C 190.79256,736.04071 191.45993,736.39270 191.45993,740.44067 C 191.45993,744.45929 191.69440,741.90732 194.16546,741.90732 C 196.65455,741.90732 195.96914,744.45929 195.96914,740.44067 C 195.96914,736.39270 195.75270,736.04071 193.26361,736.04071 z M 214.00601,737.00869 C 212.36465,737.00869 210.39864,741.17400 210.39864,743.87264 C 210.39864,746.54195 210.56097,744.84063 212.20233,744.84063 C 213.86172,744.84063 218.22664,748.50726 218.22664,745.80863 C 218.22664,743.13931 215.66540,737.00869 214.00601,737.00869 z M 208.59495,744.84063 C 206.95360,744.84063 207.40452,745.07530 207.40452,747.77393 C 207.40452,750.47259 207.54881,748.74193 209.20820,748.74193 C 210.84956,748.74193 210.39864,750.47259 210.39864,747.77393 C 210.39864,745.07530 210.25434,744.84063 208.59495,744.84063 z M 218.22664,706.70762 C 216.56725,706.70762 214.00601,716.73953 214.00601,719.40884 C 214.00601,722.10749 219.57941,721.37416 221.22076,721.37416 C 222.88016,721.37416 225.44139,713.30756 225.44139,710.60893 C 225.44139,707.93962 219.86799,706.70762 218.22664,706.70762 z M 238.66242,738.97402 C 236.19136,738.97402 236.55210,739.32601 236.55210,743.37398 C 236.55210,747.39261 237.09320,744.84063 239.56426,744.84063 C 242.05335,744.84063 241.06132,747.39261 241.06132,743.37398 C 241.06132,739.32601 241.15151,738.97402 238.66242,738.97402 z M 244.07348,718.44086 C 241.60243,718.44086 245.28194,728.09144 245.28194,732.13941 C 245.28194,736.15804 253.32639,737.50736 255.79745,737.50736 C 258.28653,737.50736 253.68714,732.25674 253.68714,728.20877 C 253.68714,724.19014 246.56257,718.44086 244.07348,718.44086 z M 374.11932,330.95082 C 371.64827,330.95082 372.00901,331.33215 372.00901,335.35079 C 372.00901,339.39875 372.55011,336.81744 375.02116,336.81744 C 377.51025,336.81744 376.51822,339.39875 376.51822,335.35079 C 376.51822,331.33215 376.60841,330.95082 374.11932,330.95082 z M 364.19905,330.95082 C 361.72799,330.95082 362.08873,331.33215 362.08873,335.35079 C 362.08873,339.39875 362.62983,336.81744 365.10089,336.81744 C 367.58998,336.81744 366.59795,339.39875 366.59795,335.35079 C 366.59795,331.33215 366.68813,330.95082 364.19905,330.95082 z M 374.11932,357.35060 C 371.64827,357.35060 372.00901,357.73192 372.00901,361.75056 C 372.00901,365.79852 372.55011,363.21721 375.02116,363.21721 C 377.51025,363.21721 376.51822,365.79852 376.51822,361.75056 C 376.51822,357.73192 376.60841,357.35060 374.11932,357.35060 z M 363.11683,357.05727 C 360.64578,357.05727 361.00651,357.43859 361.00651,361.45722 C 361.00651,365.50519 361.54762,362.92388 364.01868,362.92388 C 366.50777,362.92388 365.51574,365.50519 365.51574,361.45722 C 365.51574,357.43859 365.60592,357.05727 363.11683,357.05727 z M 377.72670,388.15033 C 375.25564,388.15033 375.92301,391.46497 375.92301,395.48360 C 375.92301,399.53157 376.68056,408.68349 379.16965,408.68349 C 381.64070,408.68349 380.12561,396.59826 380.12561,392.55030 C 380.12561,388.53166 380.21579,388.15033 377.72670,388.15033 z M 361.49352,388.15033 C 359.02246,388.15033 358.96835,391.75830 358.96835,395.77694 C 358.96835,399.82490 357.21877,409.27015 359.68982,409.27015 C 362.17891,409.27015 362.93647,398.06491 362.93647,394.01695 C 362.93647,389.99832 363.98261,388.15033 361.49352,388.15033 z "
     id="path8" />
<!-- Generated by Jasc WebDraw PR4(tm) on 06/07/01 12:18:39 --></svg>
