<?xml version="1.0" encoding="utf-8"?>
<!-- Generator: Adobe Illustrator 14.0.0, SVG Export Plug-In . SVG Version: 6.00 Build 43363)  -->
<!DOCTYPE svg PUBLIC "-//W3C//DTD SVG 1.1//EN" "http://www.w3.org/Graphics/SVG/1.1/DTD/svg11.dtd">
<svg version="1.1" id="Layer_1" xmlns="http://www.w3.org/2000/svg" xmlns:xlink="http://www.w3.org/1999/xlink" x="0px" y="0px"
	 width="171.776px" height="130.126px" viewBox="0 0 171.776 130.126" enable-background="new 0 0 171.776 130.126"
	 xml:space="preserve">
<path fill="#FF89D7" stroke="#8C8C8C" d="M131.299,79.175c0-8.035-6.496-14.551-14.509-14.551H53.511
	c-8.012,0-14.509,6.516-14.509,14.551v11.822c0,8.036,6.496,14.551,14.509,14.551h63.279c8.013,0,14.509-6.516,14.509-14.551V79.175
	z"/>
<path fill="none" stroke="#8C8C8C" stroke-miterlimit="10" d="M131.299,79.175c0-8.035-6.496-14.551-14.509-14.551H53.511
	c-8.012,0-14.509,6.516-14.509,14.551v11.822c0,8.036,6.496,14.551,14.509,14.551h63.279c8.013,0,14.509-6.516,14.509-14.551V79.175
	z"/>
<polygon fill="#FF89D7" stroke="#8C8C8C" points="30.385,31.6 2.435,47.475 13.111,73.161 47.66,73.161 58.336,47.475 "/>
<polygon fill="none" stroke="#8C8C8C" stroke-miterlimit="10" points="30.385,31.6 2.435,47.475 13.111,73.161 47.66,73.161 
	58.336,47.475 "/>
<ellipse fill="#FF89D7" stroke="#8C8C8C" cx="6.763" cy="24.996" rx="6.291" ry="6.604"/>
<ellipse fill="#FF89D7" stroke="#8C8C8C" stroke-miterlimit="10" cx="6.763" cy="24.996" rx="6.291" ry="6.604"/>
<path fill="#FF89D7" stroke="#8C8C8C" d="M10.566,28.721c8.961,9.047,7.144,10.078,7.144,10.078"/>
<path fill="none" stroke="#8C8C8C" stroke-miterlimit="10" d="M10.566,28.721c8.961,9.047,7.144,10.078,7.144,10.078"/>
<rect x="108.573" y="105.548" fill="#FF89D7" stroke="#8C8C8C" width="12.254" height="24.578"/>
<rect x="108.573" y="105.548" fill="none" stroke="#8C8C8C" stroke-miterlimit="10" width="12.254" height="24.578"/>
<rect x="56.222" y="105.548" fill="#FF89D7" stroke="#8C8C8C" width="12.255" height="24.578"/>
<rect x="56.222" y="105.548" fill="none" stroke="#8C8C8C" stroke-miterlimit="10" width="12.255" height="24.578"/>
<path fill="#FF89D7" stroke="#8C8C8C" d="M126.808,67.897c3.436-5.211,13.512-22.174,11.287-29.148
	c-0.808-2.531-10.347-1.723-8.283-6.889c0.482-1.21,10.823-0.284,12.446-0.609c8.235-1.65,20.678-10.171,25.455-17.017
	c15.932-22.828-27.934-11.348-0.809-11.348"/>
<path fill="none" stroke="#8C8C8C" stroke-miterlimit="10" d="M126.808,67.897c3.436-5.211,13.512-22.174,11.287-29.148
	c-0.808-2.531-10.347-1.723-8.283-6.889c0.482-1.21,10.823-0.284,12.446-0.609c8.235-1.65,20.678-10.171,25.455-17.017
	c15.932-22.828-27.934-11.348-0.809-11.348"/>
<g>
	<defs>
		<rect id="SVGID_1_" x="40.226" y="77.147" width="96.782" height="23.809"/>
	</defs>
	<clipPath id="SVGID_2_">
		<use xlink:href="#SVGID_1_"  overflow="visible"/>
	</clipPath>
	<g clip-path="url(#SVGID_2_)">
		<text transform="matrix(0.9058 0 0 1 44.7422 89.0508)" fill="#00FCFF" font-family="'Helvetica'" font-size="15.6114"> Happy Dog</text>
	</g>
</g>
</svg>
