<?xml version="1.0" encoding="utf-8"?>
<!-- Generator: Adobe Illustrator 14.0.0, SVG Export Plug-In . SVG Version: 6.00 Build 43363)  -->
<!DOCTYPE svg PUBLIC "-//W3C//DTD SVG 1.1//EN" "http://www.w3.org/Graphics/SVG/1.1/DTD/svg11.dtd">
<svg version="1.1" id="Layer_1" xmlns="http://www.w3.org/2000/svg" xmlns:xlink="http://www.w3.org/1999/xlink" x="0px" y="0px"
	 width="171.775px" height="130.125px" viewBox="0 0 171.775 130.125" enable-background="new 0 0 171.775 130.125"
	 xml:space="preserve">
<path fill="#3D1CD7" d="M40.226,79.174c0-8.034,6.531-14.55,14.589-14.55h63.629c8.057,0,14.59,6.516,14.59,14.55v11.822
	c0,8.037-6.531,14.551-14.59,14.551H54.815c-8.057,0-14.589-6.516-14.589-14.551V79.174z"/>
<path fill="none" stroke="#000000" stroke-miterlimit="10" d="M40.226,79.174c0-8.034,6.531-14.55,14.589-14.55h63.629
	c8.057,0,14.59,6.516,14.59,14.55v11.822c0,8.037-6.531,14.551-14.59,14.551H54.815c-8.057,0-14.589-6.516-14.589-14.551V79.174z"/>
<polygon fill="#3D1CD7" stroke="#000000" points="141.698,31.6 169.804,47.475 159.068,73.161 124.328,73.161 113.593,47.475 "/>
<polygon fill="none" stroke="#000000" stroke-miterlimit="10" points="141.698,31.6 169.804,47.475 159.068,73.161 124.328,73.161 
	113.593,47.475 "/>
<ellipse fill="#FF89D7" stroke="#000000" cx="165.451" cy="24.996" rx="6.324" ry="6.604"/>
<ellipse fill="#3D1CD7" stroke="#000000" stroke-miterlimit="10" cx="165.451" cy="24.996" rx="6.324" ry="6.604"/>
<path fill="#FF89D7" stroke="#000000" d="M161.627,28.721c-9.011,9.047-7.185,10.078-7.185,10.078"/>
<path fill="none" stroke="#000000" stroke-miterlimit="10" d="M161.627,28.721c-9.011,9.047-7.185,10.078-7.185,10.078"/>
<rect x="50.755" y="105.547" fill="#3D1CD7" stroke="#000000" width="12.322" height="24.578"/>
<rect x="50.755" y="105.547" fill="none" stroke="#000000" stroke-miterlimit="10" width="12.322" height="24.578"/>
<rect x="103.396" y="105.547" fill="#3D1CD7" stroke="#000000" width="12.323" height="24.578"/>
<rect x="103.396" y="105.547" fill="none" stroke="#000000" stroke-miterlimit="10" width="12.323" height="24.578"/>
<path fill="#3D1CD7" stroke="#000000" d="M44.742,67.897c-3.455-5.211-13.588-22.174-11.35-29.148
	c0.812-2.531,10.404-1.723,8.329-6.889c-0.485-1.21-10.883-0.284-12.516-0.609C20.926,29.602,8.415,21.08,3.61,14.234
	C-12.409-8.594,31.699,2.886,4.423,2.886"/>
<path fill="none" stroke="#000000" stroke-miterlimit="10" d="M44.742,67.897c-3.455-5.211-13.588-22.174-11.35-29.148
	c0.812-2.531,10.404-1.723,8.329-6.889c-0.485-1.21-10.883-0.284-12.516-0.609C20.926,29.602,8.415,21.08,3.61,14.234
	C-12.409-8.594,31.699,2.886,4.423,2.886"/>
<g>
	<g>
		<g>
			<defs>
				<rect id="SVGID_1_" x="40.226" y="77.147" width="96.782" height="23.809"/>
			</defs>
			<clipPath id="SVGID_2_">
				<use xlink:href="#SVGID_1_"  overflow="visible"/>
			</clipPath>
			<g clip-path="url(#SVGID_2_)">
				<text transform="matrix(0.9058 0 0 1 44.7424 89.0513)" fill="#00FCFF" font-family="'Helvetica'" font-size="15.6114">Unhappy Dog</text>
			</g>
		</g>
	</g>
</g>
</svg>
